<svg width="164" height="210" viewBox="0 0 164 210" fill="none" xmlns="http://www.w3.org/2000/svg">
<g filter="url(#filter0_d_511_344)">
<path d="M10 20C10 8.95428 18.9543 0 30 0H156.961V196.679H30C18.9543 196.679 10 187.725 10 176.679V20Z" fill="#FFC799"/>
<path d="M12.5193 24.5388C12.5193 13.4931 21.4736 4.53882 32.5193 4.53882H159.481V200.461H32.5193C21.4736 200.461 12.5193 191.507 12.5193 180.461V24.5388Z" fill="white"/>
<path d="M15.0386 28.3209C15.0386 17.2752 23.9929 8.32092 35.0386 8.32092H162V205H35.0386C23.9929 205 15.0386 196.046 15.0386 185V28.3209Z" fill="#FFC799"/>
<path d="M8.77491 35.0004C7.05301 35.0004 4.75559 34.9185 4.23119 37.0161C3.31004 40.7007 5.28769 45.1041 7.57919 47.7775C10.822 51.5608 17.7477 52.7968 22.3206 51.433C24.8223 50.6868 24.0819 47.3739 23.5334 45.4544C23.2762 44.554 22.5856 43.8407 22.3036 42.9946" stroke="#997D5E" stroke-width="3" stroke-linecap="round"/>
<path d="M8.79468 65.8784C7.07279 65.8784 4.77537 65.7964 4.25097 67.894C3.32982 71.5786 5.30747 75.982 7.59897 78.6554C10.8418 82.4387 17.7675 83.6748 22.3404 82.3109C24.8421 81.5648 24.1016 78.2518 23.5532 76.3323C23.296 75.432 22.6053 74.7186 22.3233 73.8726" stroke="#997D5E" stroke-width="3" stroke-linecap="round"/>
<path d="M8.79468 96.8784C7.07279 96.8784 4.77537 96.7964 4.25097 98.894C3.32982 102.579 5.30747 106.982 7.59897 109.655C10.8418 113.439 17.7675 114.675 22.3404 113.311C24.8421 112.565 24.1016 109.252 23.5532 107.332C23.296 106.432 22.6053 105.719 22.3233 104.873" stroke="#997D5E" stroke-width="3" stroke-linecap="round"/>
<path d="M8.79468 127.878C7.07279 127.878 4.77537 127.796 4.25097 129.894C3.32982 133.579 5.30747 137.982 7.59897 140.655C10.8418 144.439 17.7675 145.675 22.3404 144.311C24.8421 143.565 24.1016 140.252 23.5532 138.332C23.296 137.432 22.6053 136.719 22.3233 135.873" stroke="#997D5E" stroke-width="3" stroke-linecap="round"/>
<path d="M8.79468 158.878C7.07279 158.878 4.77537 158.796 4.25097 160.894C3.32982 164.579 5.30747 168.982 7.59897 171.655C10.8418 175.439 17.7675 176.675 22.3404 175.311C24.8421 174.565 24.1016 171.252 23.5532 169.332C23.296 168.432 22.6053 167.719 22.3233 166.873" stroke="#997D5E" stroke-width="3" stroke-linecap="round"/>
</g>
<defs>
<filter id="filter0_d_511_344" x="0.5" y="0" width="163.5" height="210" filterUnits="userSpaceOnUse" color-interpolation-filters="sRGB">
<feFlood flood-opacity="0" result="BackgroundImageFix"/>
<feColorMatrix in="SourceAlpha" type="matrix" values="0 0 0 0 0 0 0 0 0 0 0 0 0 0 0 0 0 0 127 0" result="hardAlpha"/>
<feOffset dy="3"/>
<feGaussianBlur stdDeviation="1"/>
<feComposite in2="hardAlpha" operator="out"/>
<feColorMatrix type="matrix" values="0 0 0 0 0 0 0 0 0 0 0 0 0 0 0 0 0 0 0.25 0"/>
<feBlend mode="normal" in2="BackgroundImageFix" result="effect1_dropShadow_511_344"/>
<feBlend mode="normal" in="SourceGraphic" in2="effect1_dropShadow_511_344" result="shape"/>
</filter>
</defs>
</svg>
